<svg width="71" height="55" viewBox="0 0 71 55" fill="none" xmlns="http://www.w3.org/2000/svg">
<path d="M11.1469 30.0514C11.1469 30.0514 11.068 30.1205 11.0286 30.16C7.49698 33.9325 7.81265 38.8604 11.3245 41.7342C12.824 42.9588 14.6292 43.5908 16.3062 43.8969C18.6738 44.3315 21.1597 44.1636 23.4286 43.4723C28.9923 41.7737 33.1256 39.4431 36.6375 37.0532C37.693 36.3322 38.8571 35.4928 42.0039 33.3498C42.4873 33.0141 44.3123 31.7895 46.8179 30.3378C49.3532 28.8762 50.2509 28.5503 51.2669 28.3725C52.0068 28.2442 53.7825 27.938 55.5778 28.6096C57.4521 29.3107 58.2315 30.6735 58.8825 31.8092C59.721 33.2708 59.9381 34.683 59.9183 35.8088C59.9183 35.9471 59.9479 36.0755 60.0367 36.194C60.1452 36.3421 60.3425 36.4606 60.53 36.5001C60.9147 36.5791 61.4178 36.352 61.6545 35.9175C63.6374 31.434 61.477 26.7332 57.0082 24.7482C54.9366 23.8298 52.7762 23.6718 50.9513 23.8002C48.998 23.9384 47.4789 24.5112 45.2889 25.3309C43.7993 25.8938 42.7438 26.3974 41.6981 26.911C40.2184 27.6319 38.2356 28.6886 35.9963 30.1304L24.7209 37.6457C24.1783 37.9815 19.5221 40.7664 15.5466 39.3443C15.3493 39.2752 14.6983 39.0283 14.0472 38.5542C10.8214 36.2039 12.163 31.6018 12.4195 30.8217C12.4294 30.7921 12.4392 30.7624 12.4491 30.7328C12.5971 30.3477 12.3406 29.9625 11.946 29.8638C11.6796 29.7946 11.364 29.8638 11.1272 30.0415L11.1469 30.0514Z" fill="#007E1F"/>
<path d="M3.44259 41.744C3.3834 41.6847 3.33408 41.6057 3.29462 41.5366C-1.36155 33.9818 -0.947231 24.1161 3.67934 18.3685C5.6523 15.9095 8.03957 14.6553 10.2394 14.0331C13.3665 13.1641 16.6416 13.49 19.6208 14.8824C26.9503 18.2895 32.3858 22.9508 37.0222 27.7305C38.4132 29.1724 39.9521 30.8611 44.0953 35.1372C44.7365 35.7989 47.1336 38.2678 50.4383 41.1613C53.7825 44.0845 54.9564 44.7363 56.298 45.0918C57.2647 45.3485 59.6126 45.9608 61.9702 44.6178C64.4364 43.2154 65.4624 40.4898 66.3206 38.2184C67.4255 35.2853 67.7115 32.4609 67.6819 30.2192C67.6819 29.9525 67.7214 29.676 67.8398 29.439C67.9779 29.1427 68.2344 28.8959 68.4908 28.8168C68.9939 28.6588 69.6549 29.1131 69.9706 29.9822C72.5847 38.9591 69.7437 48.3705 63.8445 52.3503C61.112 54.1971 58.271 54.5131 55.8639 54.2464C53.2892 53.96 51.2867 52.8244 48.4062 51.185C46.4431 50.0691 45.0522 49.042 43.681 48.015C41.7376 46.5632 39.1234 44.4597 36.1739 41.5761L21.3274 26.5257C20.6073 25.8542 14.4911 20.2745 9.25293 23.1186C8.98659 23.2668 8.13822 23.7408 7.27998 24.6987C3.02827 29.4094 4.80393 38.6233 5.12946 40.1737C5.13933 40.233 5.15906 40.2923 5.17879 40.3614C5.37608 41.1416 5.03082 41.9119 4.51785 42.0995C4.16272 42.2279 3.7484 42.0896 3.44259 41.7341V41.744Z" fill="#00AD38"/>
<path d="M37.2687 13.5493C41.0061 13.5493 44.0359 10.5162 44.0359 6.77464C44.0359 3.03311 41.0061 0 37.2687 0C33.5313 0 30.5015 3.03311 30.5015 6.77464C30.5015 10.5162 33.5313 13.5493 37.2687 13.5493Z" fill="#00AD38"/>
</svg>
