<svg width="28" height="28" viewBox="0 0 28 28" fill="none" xmlns="http://www.w3.org/2000/svg">
<path d="M16.3303 6.95287L21.0527 11.6753M10.0338 22.6942L23.6538 9.07419C24.8254 7.90262 24.8254 6.00312 23.6538 4.83155L23.1741 4.35179C22.0025 3.18022 20.103 3.18022 18.9314 4.35179L5.3114 17.9718L3.64129 24.3643L10.0338 22.6942Z" stroke="#111111" stroke-width="1.7" stroke-linecap="round" stroke-linejoin="round"/>
<path d="M16.3303 6.95287L21.0527 11.6753M10.0338 22.6942L23.6538 9.07419C24.8254 7.90262 24.8254 6.00312 23.6538 4.83155L23.1741 4.35179C22.0025 3.18022 20.103 3.18022 18.9314 4.35179L5.3114 17.9718L3.64129 24.3643L10.0338 22.6942Z" stroke="black" stroke-opacity="0.2" stroke-width="1.7" stroke-linecap="round" stroke-linejoin="round"/>
<path d="M16.3303 6.95287L21.0527 11.6753M10.0338 22.6942L23.6538 9.07419C24.8254 7.90262 24.8254 6.00312 23.6538 4.83155L23.1741 4.35179C22.0025 3.18022 20.103 3.18022 18.9314 4.35179L5.3114 17.9718L3.64129 24.3643L10.0338 22.6942Z" stroke="black" stroke-opacity="0.2" stroke-width="1.7" stroke-linecap="round" stroke-linejoin="round"/>
<path d="M16.3303 6.95287L21.0527 11.6753M10.0338 22.6942L23.6538 9.07419C24.8254 7.90262 24.8254 6.00312 23.6538 4.83155L23.1741 4.35179C22.0025 3.18022 20.103 3.18022 18.9314 4.35179L5.3114 17.9718L3.64129 24.3643L10.0338 22.6942Z" stroke="black" stroke-opacity="0.2" stroke-width="1.7" stroke-linecap="round" stroke-linejoin="round"/>
<path d="M16.3303 6.95287L21.0527 11.6753M10.0338 22.6942L23.6538 9.07419C24.8254 7.90262 24.8254 6.00312 23.6538 4.83155L23.1741 4.35179C22.0025 3.18022 20.103 3.18022 18.9314 4.35179L5.3114 17.9718L3.64129 24.3643L10.0338 22.6942Z" stroke="black" stroke-opacity="0.2" stroke-width="1.7" stroke-linecap="round" stroke-linejoin="round"/>
<path d="M16.3303 6.95287L21.0527 11.6753M10.0338 22.6942L23.6538 9.07419C24.8254 7.90262 24.8254 6.00312 23.6538 4.83155L23.1741 4.35179C22.0025 3.18022 20.103 3.18022 18.9314 4.35179L5.3114 17.9718L3.64129 24.3643L10.0338 22.6942Z" stroke="black" stroke-opacity="0.2" stroke-width="1.7" stroke-linecap="round" stroke-linejoin="round"/>
<path d="M16.3303 6.95287L21.0527 11.6753M10.0338 22.6942L23.6538 9.07419C24.8254 7.90262 24.8254 6.00312 23.6538 4.83155L23.1741 4.35179C22.0025 3.18022 20.103 3.18022 18.9314 4.35179L5.3114 17.9718L3.64129 24.3643L10.0338 22.6942Z" stroke="black" stroke-opacity="0.2" stroke-width="1.7" stroke-linecap="round" stroke-linejoin="round"/>
<path d="M16.3303 6.95287L21.0527 11.6753M10.0338 22.6942L23.6538 9.07419C24.8254 7.90262 24.8254 6.00312 23.6538 4.83155L23.1741 4.35179C22.0025 3.18022 20.103 3.18022 18.9314 4.35179L5.3114 17.9718L3.64129 24.3643L10.0338 22.6942Z" stroke="black" stroke-opacity="0.2" stroke-width="1.7" stroke-linecap="round" stroke-linejoin="round"/>
</svg>
