<svg width="24" height="25" viewBox="0 0 24 25" fill="none" xmlns="http://www.w3.org/2000/svg">
<path d="M12 11.5667C7.5 11.5667 5.46405 15.1923 5.00318 18.5564C4.96128 19.0487 5.33836 19.5 5.84112 19.5H18.1589C18.6616 19.5 19.0387 19.0487 18.9968 18.5564C18.536 15.1923 16.5 11.5667 12 11.5667ZM12 11.5667C13.6914 11.5667 15.0625 10.2086 15.0625 8.53333C15.0625 6.85807 13.6914 5.5 12 5.5C10.3086 5.5 8.9375 6.85807 8.9375 8.53333C8.9375 10.2086 10.3086 11.5667 12 11.5667Z" stroke="#111111" stroke-width="1.5" stroke-linecap="round"/>
<path d="M12 11.5667C7.5 11.5667 5.46405 15.1923 5.00318 18.5564C4.96128 19.0487 5.33836 19.5 5.84112 19.5H18.1589C18.6616 19.5 19.0387 19.0487 18.9968 18.5564C18.536 15.1923 16.5 11.5667 12 11.5667ZM12 11.5667C13.6914 11.5667 15.0625 10.2086 15.0625 8.53333C15.0625 6.85807 13.6914 5.5 12 5.5C10.3086 5.5 8.9375 6.85807 8.9375 8.53333C8.9375 10.2086 10.3086 11.5667 12 11.5667Z" stroke="black" stroke-opacity="0.2" stroke-width="1.5" stroke-linecap="round"/>
<path d="M12 11.5667C7.5 11.5667 5.46405 15.1923 5.00318 18.5564C4.96128 19.0487 5.33836 19.5 5.84112 19.5H18.1589C18.6616 19.5 19.0387 19.0487 18.9968 18.5564C18.536 15.1923 16.5 11.5667 12 11.5667ZM12 11.5667C13.6914 11.5667 15.0625 10.2086 15.0625 8.53333C15.0625 6.85807 13.6914 5.5 12 5.5C10.3086 5.5 8.9375 6.85807 8.9375 8.53333C8.9375 10.2086 10.3086 11.5667 12 11.5667Z" stroke="black" stroke-opacity="0.2" stroke-width="1.5" stroke-linecap="round"/>
<path d="M12 11.5667C7.5 11.5667 5.46405 15.1923 5.00318 18.5564C4.96128 19.0487 5.33836 19.5 5.84112 19.5H18.1589C18.6616 19.5 19.0387 19.0487 18.9968 18.5564C18.536 15.1923 16.5 11.5667 12 11.5667ZM12 11.5667C13.6914 11.5667 15.0625 10.2086 15.0625 8.53333C15.0625 6.85807 13.6914 5.5 12 5.5C10.3086 5.5 8.9375 6.85807 8.9375 8.53333C8.9375 10.2086 10.3086 11.5667 12 11.5667Z" stroke="black" stroke-opacity="0.2" stroke-width="1.5" stroke-linecap="round"/>
<path d="M12 11.5667C7.5 11.5667 5.46405 15.1923 5.00318 18.5564C4.96128 19.0487 5.33836 19.5 5.84112 19.5H18.1589C18.6616 19.5 19.0387 19.0487 18.9968 18.5564C18.536 15.1923 16.5 11.5667 12 11.5667ZM12 11.5667C13.6914 11.5667 15.0625 10.2086 15.0625 8.53333C15.0625 6.85807 13.6914 5.5 12 5.5C10.3086 5.5 8.9375 6.85807 8.9375 8.53333C8.9375 10.2086 10.3086 11.5667 12 11.5667Z" stroke="black" stroke-opacity="0.2" stroke-width="1.5" stroke-linecap="round"/>
<path d="M12 11.5667C7.5 11.5667 5.46405 15.1923 5.00318 18.5564C4.96128 19.0487 5.33836 19.5 5.84112 19.5H18.1589C18.6616 19.5 19.0387 19.0487 18.9968 18.5564C18.536 15.1923 16.5 11.5667 12 11.5667ZM12 11.5667C13.6914 11.5667 15.0625 10.2086 15.0625 8.53333C15.0625 6.85807 13.6914 5.5 12 5.5C10.3086 5.5 8.9375 6.85807 8.9375 8.53333C8.9375 10.2086 10.3086 11.5667 12 11.5667Z" stroke="black" stroke-opacity="0.2" stroke-width="1.5" stroke-linecap="round"/>
<path d="M12 11.5667C7.5 11.5667 5.46405 15.1923 5.00318 18.5564C4.96128 19.0487 5.33836 19.5 5.84112 19.5H18.1589C18.6616 19.5 19.0387 19.0487 18.9968 18.5564C18.536 15.1923 16.5 11.5667 12 11.5667ZM12 11.5667C13.6914 11.5667 15.0625 10.2086 15.0625 8.53333C15.0625 6.85807 13.6914 5.5 12 5.5C10.3086 5.5 8.9375 6.85807 8.9375 8.53333C8.9375 10.2086 10.3086 11.5667 12 11.5667Z" stroke="black" stroke-opacity="0.2" stroke-width="1.5" stroke-linecap="round"/>
<path d="M12 11.5667C7.5 11.5667 5.46405 15.1923 5.00318 18.5564C4.96128 19.0487 5.33836 19.5 5.84112 19.5H18.1589C18.6616 19.5 19.0387 19.0487 18.9968 18.5564C18.536 15.1923 16.5 11.5667 12 11.5667ZM12 11.5667C13.6914 11.5667 15.0625 10.2086 15.0625 8.53333C15.0625 6.85807 13.6914 5.5 12 5.5C10.3086 5.5 8.9375 6.85807 8.9375 8.53333C8.9375 10.2086 10.3086 11.5667 12 11.5667Z" stroke="black" stroke-opacity="0.2" stroke-width="1.5" stroke-linecap="round"/>
</svg>
