<svg width="24" height="25" viewBox="0 0 24 25" fill="none" xmlns="http://www.w3.org/2000/svg">
<path d="M10.6421 6.39292C11.182 5.24271 12.818 5.24271 13.3579 6.39292L14.4411 8.70067C14.6536 9.1535 15.0779 9.47057 15.5724 9.54612L18.1143 9.93449C19.3212 10.1189 19.814 11.5909 18.9614 12.4648L17.0287 14.4457C16.6962 14.7865 16.5452 15.2648 16.6219 15.7347L17.065 18.4513C17.2666 19.6871 15.9547 20.6114 14.8589 20.0056L12.7257 18.8264C12.2741 18.5767 11.7259 18.5767 11.2743 18.8264L9.14111 20.0056C8.04526 20.6114 6.73341 19.6871 6.93499 18.4513L7.37812 15.7347C7.45477 15.2648 7.3038 14.7865 6.97132 14.4457L5.03862 12.4648C4.186 11.5909 4.6788 10.1189 5.8857 9.93449L8.42763 9.54612C8.92211 9.47057 9.34639 9.1535 9.55894 8.70067L10.6421 6.39292Z" stroke="#111111" stroke-width="1.5" stroke-linecap="round"/>
<path d="M10.6421 6.39292C11.182 5.24271 12.818 5.24271 13.3579 6.39292L14.4411 8.70067C14.6536 9.1535 15.0779 9.47057 15.5724 9.54612L18.1143 9.93449C19.3212 10.1189 19.814 11.5909 18.9614 12.4648L17.0287 14.4457C16.6962 14.7865 16.5452 15.2648 16.6219 15.7347L17.065 18.4513C17.2666 19.6871 15.9547 20.6114 14.8589 20.0056L12.7257 18.8264C12.2741 18.5767 11.7259 18.5767 11.2743 18.8264L9.14111 20.0056C8.04526 20.6114 6.73341 19.6871 6.93499 18.4513L7.37812 15.7347C7.45477 15.2648 7.3038 14.7865 6.97132 14.4457L5.03862 12.4648C4.186 11.5909 4.6788 10.1189 5.8857 9.93449L8.42763 9.54612C8.92211 9.47057 9.34639 9.1535 9.55894 8.70067L10.6421 6.39292Z" stroke="black" stroke-opacity="0.2" stroke-width="1.5" stroke-linecap="round"/>
<path d="M10.6421 6.39292C11.182 5.24271 12.818 5.24271 13.3579 6.39292L14.4411 8.70067C14.6536 9.1535 15.0779 9.47057 15.5724 9.54612L18.1143 9.93449C19.3212 10.1189 19.814 11.5909 18.9614 12.4648L17.0287 14.4457C16.6962 14.7865 16.5452 15.2648 16.6219 15.7347L17.065 18.4513C17.2666 19.6871 15.9547 20.6114 14.8589 20.0056L12.7257 18.8264C12.2741 18.5767 11.7259 18.5767 11.2743 18.8264L9.14111 20.0056C8.04526 20.6114 6.73341 19.6871 6.93499 18.4513L7.37812 15.7347C7.45477 15.2648 7.3038 14.7865 6.97132 14.4457L5.03862 12.4648C4.186 11.5909 4.6788 10.1189 5.8857 9.93449L8.42763 9.54612C8.92211 9.47057 9.34639 9.1535 9.55894 8.70067L10.6421 6.39292Z" stroke="black" stroke-opacity="0.2" stroke-width="1.5" stroke-linecap="round"/>
<path d="M10.6421 6.39292C11.182 5.24271 12.818 5.24271 13.3579 6.39292L14.4411 8.70067C14.6536 9.1535 15.0779 9.47057 15.5724 9.54612L18.1143 9.93449C19.3212 10.1189 19.814 11.5909 18.9614 12.4648L17.0287 14.4457C16.6962 14.7865 16.5452 15.2648 16.6219 15.7347L17.065 18.4513C17.2666 19.6871 15.9547 20.6114 14.8589 20.0056L12.7257 18.8264C12.2741 18.5767 11.7259 18.5767 11.2743 18.8264L9.14111 20.0056C8.04526 20.6114 6.73341 19.6871 6.93499 18.4513L7.37812 15.7347C7.45477 15.2648 7.3038 14.7865 6.97132 14.4457L5.03862 12.4648C4.186 11.5909 4.6788 10.1189 5.8857 9.93449L8.42763 9.54612C8.92211 9.47057 9.34639 9.1535 9.55894 8.70067L10.6421 6.39292Z" stroke="black" stroke-opacity="0.2" stroke-width="1.5" stroke-linecap="round"/>
<path d="M10.6421 6.39292C11.182 5.24271 12.818 5.24271 13.3579 6.39292L14.4411 8.70067C14.6536 9.1535 15.0779 9.47057 15.5724 9.54612L18.1143 9.93449C19.3212 10.1189 19.814 11.5909 18.9614 12.4648L17.0287 14.4457C16.6962 14.7865 16.5452 15.2648 16.6219 15.7347L17.065 18.4513C17.2666 19.6871 15.9547 20.6114 14.8589 20.0056L12.7257 18.8264C12.2741 18.5767 11.7259 18.5767 11.2743 18.8264L9.14111 20.0056C8.04526 20.6114 6.73341 19.6871 6.93499 18.4513L7.37812 15.7347C7.45477 15.2648 7.3038 14.7865 6.97132 14.4457L5.03862 12.4648C4.186 11.5909 4.6788 10.1189 5.8857 9.93449L8.42763 9.54612C8.92211 9.47057 9.34639 9.1535 9.55894 8.70067L10.6421 6.39292Z" stroke="black" stroke-opacity="0.2" stroke-width="1.5" stroke-linecap="round"/>
<path d="M10.6421 6.39292C11.182 5.24271 12.818 5.24271 13.3579 6.39292L14.4411 8.70067C14.6536 9.1535 15.0779 9.47057 15.5724 9.54612L18.1143 9.93449C19.3212 10.1189 19.814 11.5909 18.9614 12.4648L17.0287 14.4457C16.6962 14.7865 16.5452 15.2648 16.6219 15.7347L17.065 18.4513C17.2666 19.6871 15.9547 20.6114 14.8589 20.0056L12.7257 18.8264C12.2741 18.5767 11.7259 18.5767 11.2743 18.8264L9.14111 20.0056C8.04526 20.6114 6.73341 19.6871 6.93499 18.4513L7.37812 15.7347C7.45477 15.2648 7.3038 14.7865 6.97132 14.4457L5.03862 12.4648C4.186 11.5909 4.6788 10.1189 5.8857 9.93449L8.42763 9.54612C8.92211 9.47057 9.34639 9.1535 9.55894 8.70067L10.6421 6.39292Z" stroke="black" stroke-opacity="0.2" stroke-width="1.5" stroke-linecap="round"/>
<path d="M10.6421 6.39292C11.182 5.24271 12.818 5.24271 13.3579 6.39292L14.4411 8.70067C14.6536 9.1535 15.0779 9.47057 15.5724 9.54612L18.1143 9.93449C19.3212 10.1189 19.814 11.5909 18.9614 12.4648L17.0287 14.4457C16.6962 14.7865 16.5452 15.2648 16.6219 15.7347L17.065 18.4513C17.2666 19.6871 15.9547 20.6114 14.8589 20.0056L12.7257 18.8264C12.2741 18.5767 11.7259 18.5767 11.2743 18.8264L9.14111 20.0056C8.04526 20.6114 6.73341 19.6871 6.93499 18.4513L7.37812 15.7347C7.45477 15.2648 7.3038 14.7865 6.97132 14.4457L5.03862 12.4648C4.186 11.5909 4.6788 10.1189 5.8857 9.93449L8.42763 9.54612C8.92211 9.47057 9.34639 9.1535 9.55894 8.70067L10.6421 6.39292Z" stroke="black" stroke-opacity="0.2" stroke-width="1.5" stroke-linecap="round"/>
<path d="M10.6421 6.39292C11.182 5.24271 12.818 5.24271 13.3579 6.39292L14.4411 8.70067C14.6536 9.1535 15.0779 9.47057 15.5724 9.54612L18.1143 9.93449C19.3212 10.1189 19.814 11.5909 18.9614 12.4648L17.0287 14.4457C16.6962 14.7865 16.5452 15.2648 16.6219 15.7347L17.065 18.4513C17.2666 19.6871 15.9547 20.6114 14.8589 20.0056L12.7257 18.8264C12.2741 18.5767 11.7259 18.5767 11.2743 18.8264L9.14111 20.0056C8.04526 20.6114 6.73341 19.6871 6.93499 18.4513L7.37812 15.7347C7.45477 15.2648 7.3038 14.7865 6.97132 14.4457L5.03862 12.4648C4.186 11.5909 4.6788 10.1189 5.8857 9.93449L8.42763 9.54612C8.92211 9.47057 9.34639 9.1535 9.55894 8.70067L10.6421 6.39292Z" stroke="black" stroke-opacity="0.2" stroke-width="1.5" stroke-linecap="round"/>
</svg>
