<svg width="32" height="32" viewBox="0 0 32 32" fill="none" xmlns="http://www.w3.org/2000/svg">
<path d="M23.9987 24.0002L23.0022 23.9172L23.0014 23.9266L23.0008 23.9361L23.9987 24.0002ZM7.9987 24.0002L8.99664 23.9361L8.99603 23.9266L8.99524 23.9172L7.9987 24.0002ZM19.9987 8V9H20.9987V8H19.9987ZM11.9987 8H10.9987V9H11.9987V8ZM13.6619 13.2505C13.616 12.7002 13.1327 12.2912 12.5823 12.337C12.0319 12.3829 11.623 12.8662 11.6688 13.4166L12.6654 13.3336L13.6619 13.2505ZM12.3355 21.4166C12.3814 21.967 12.8647 22.376 13.4151 22.3301C13.9655 22.2843 14.3744 21.8009 14.3286 21.2505L13.332 21.3336L12.3355 21.4166ZM20.3286 13.4166C20.3744 12.8662 19.9655 12.3829 19.4151 12.337C18.8647 12.2912 18.3814 12.7002 18.3355 13.2505L19.332 13.3336L20.3286 13.4166ZM17.6688 21.2505C17.623 21.8009 18.0319 22.2843 18.5823 22.3301C19.1327 22.376 19.616 21.967 19.6619 21.4166L18.6654 21.3336L17.6688 21.2505ZM26.6654 9C27.2177 9 27.6654 8.55228 27.6654 8C27.6654 7.44772 27.2177 7 26.6654 7V8V9ZM5.33203 7C4.77975 7 4.33203 7.44772 4.33203 8C4.33203 8.55228 4.77975 9 5.33203 9V8V7ZM25.332 8L24.3355 7.91696L23.0022 23.9172L23.9987 24.0002L24.9952 24.0833L26.3286 8.08304L25.332 8ZM23.9987 24.0002L23.0008 23.9361C22.9317 25.0104 22.1616 25.6669 21.3388 25.6669V26.6669V27.6669C23.3139 27.6669 24.8663 26.0911 24.9966 24.0644L23.9987 24.0002ZM21.3388 26.6669V25.6669H10.6654V26.6669V27.6669H21.3388V26.6669ZM10.6654 26.6669V25.6669C9.83932 25.6669 9.06549 25.0071 8.99664 23.9361L7.9987 24.0002L7.00076 24.0644C7.13127 26.0944 8.69333 27.6669 10.6654 27.6669V26.6669ZM7.9987 24.0002L8.99524 23.9172L7.66191 7.91696L6.66536 8L5.66882 8.08304L7.00215 24.0833L7.9987 24.0002ZM6.66536 8V9H25.332V8V7H6.66536V8ZM19.9987 8H20.9987V5H19.9987H18.9987V8H19.9987ZM11.9987 5H10.9987V8H11.9987H12.9987V5H11.9987ZM12.6654 13.3336L11.6688 13.4166L12.3355 21.4166L13.332 21.3336L14.3286 21.2505L13.6619 13.2505L12.6654 13.3336ZM19.332 13.3336L18.3355 13.2505L17.6688 21.2505L18.6654 21.3336L19.6619 21.4166L20.3286 13.4166L19.332 13.3336ZM18.9987 4V3H12.9987V4V5H18.9987V4ZM11.9987 8V9H19.9987V8V7H11.9987V8ZM25.332 8V9H26.6654V8V7H25.332V8ZM26.6654 8V7H6.66536V8V9H26.6654V8ZM5.33203 8V9H6.66536V8V7H5.33203V8ZM11.9987 5H12.9987H12.9987V4V3C11.8941 3 10.9987 3.89543 10.9987 5H11.9987ZM19.9987 5H20.9987C20.9987 3.89543 20.1033 3 18.9987 3V4V5H18.9987H19.9987Z" fill="#111111"/>
</svg>
