<svg width="24" height="25" viewBox="0 0 24 25" fill="none" xmlns="http://www.w3.org/2000/svg">
<path d="M13.9974 6.4611L18.0452 10.5089M8.60037 19.9537L20.0691 8.48499C21.1868 7.36723 21.1868 5.55498 20.0691 4.43722V4.43722C18.9513 3.31945 17.139 3.31946 16.0213 4.43722L4.55259 15.9059L3.12107 21.3852L8.60037 19.9537Z" stroke="#111111" stroke-width="1.5" stroke-linecap="round" stroke-linejoin="round"/>
<path d="M13.9974 6.4611L18.0452 10.5089M8.60037 19.9537L20.0691 8.48499C21.1868 7.36723 21.1868 5.55498 20.0691 4.43722V4.43722C18.9513 3.31945 17.139 3.31946 16.0213 4.43722L4.55259 15.9059L3.12107 21.3852L8.60037 19.9537Z" stroke="black" stroke-opacity="0.2" stroke-width="1.5" stroke-linecap="round" stroke-linejoin="round"/>
<path d="M13.9974 6.4611L18.0452 10.5089M8.60037 19.9537L20.0691 8.48499C21.1868 7.36723 21.1868 5.55498 20.0691 4.43722V4.43722C18.9513 3.31945 17.139 3.31946 16.0213 4.43722L4.55259 15.9059L3.12107 21.3852L8.60037 19.9537Z" stroke="black" stroke-opacity="0.2" stroke-width="1.5" stroke-linecap="round" stroke-linejoin="round"/>
<path d="M13.9974 6.4611L18.0452 10.5089M8.60037 19.9537L20.0691 8.48499C21.1868 7.36723 21.1868 5.55498 20.0691 4.43722V4.43722C18.9513 3.31945 17.139 3.31946 16.0213 4.43722L4.55259 15.9059L3.12107 21.3852L8.60037 19.9537Z" stroke="black" stroke-opacity="0.2" stroke-width="1.5" stroke-linecap="round" stroke-linejoin="round"/>
<path d="M13.9974 6.4611L18.0452 10.5089M8.60037 19.9537L20.0691 8.48499C21.1868 7.36723 21.1868 5.55498 20.0691 4.43722V4.43722C18.9513 3.31945 17.139 3.31946 16.0213 4.43722L4.55259 15.9059L3.12107 21.3852L8.60037 19.9537Z" stroke="black" stroke-opacity="0.2" stroke-width="1.5" stroke-linecap="round" stroke-linejoin="round"/>
<path d="M13.9974 6.4611L18.0452 10.5089M8.60037 19.9537L20.0691 8.48499C21.1868 7.36723 21.1868 5.55498 20.0691 4.43722V4.43722C18.9513 3.31945 17.139 3.31946 16.0213 4.43722L4.55259 15.9059L3.12107 21.3852L8.60037 19.9537Z" stroke="black" stroke-opacity="0.2" stroke-width="1.5" stroke-linecap="round" stroke-linejoin="round"/>
<path d="M13.9974 6.4611L18.0452 10.5089M8.60037 19.9537L20.0691 8.48499C21.1868 7.36723 21.1868 5.55498 20.0691 4.43722V4.43722C18.9513 3.31945 17.139 3.31946 16.0213 4.43722L4.55259 15.9059L3.12107 21.3852L8.60037 19.9537Z" stroke="black" stroke-opacity="0.2" stroke-width="1.5" stroke-linecap="round" stroke-linejoin="round"/>
<path d="M13.9974 6.4611L18.0452 10.5089M8.60037 19.9537L20.0691 8.48499C21.1868 7.36723 21.1868 5.55498 20.0691 4.43722V4.43722C18.9513 3.31945 17.139 3.31946 16.0213 4.43722L4.55259 15.9059L3.12107 21.3852L8.60037 19.9537Z" stroke="black" stroke-opacity="0.2" stroke-width="1.5" stroke-linecap="round" stroke-linejoin="round"/>
</svg>
