<svg width="24" height="25" viewBox="0 0 24 25" fill="none" xmlns="http://www.w3.org/2000/svg">
<g clip-path="url(#clip0_1071_4896)">
<path d="M13 3.5H9C7.34315 3.5 6 4.84315 6 6.5V18.5C6 20.1569 7.34315 21.5 9 21.5H13M10 12.5H18.5M15.5 9L18.2929 11.7929C18.6834 12.1834 18.6834 12.8166 18.2929 13.2071L15.5 16" stroke="#111111" stroke-width="1.5" stroke-linecap="round"/>
<path d="M13 3.5H9C7.34315 3.5 6 4.84315 6 6.5V18.5C6 20.1569 7.34315 21.5 9 21.5H13M10 12.5H18.5M15.5 9L18.2929 11.7929C18.6834 12.1834 18.6834 12.8166 18.2929 13.2071L15.5 16" stroke="black" stroke-opacity="0.2" stroke-width="1.5" stroke-linecap="round"/>
<path d="M13 3.5H9C7.34315 3.5 6 4.84315 6 6.5V18.5C6 20.1569 7.34315 21.5 9 21.5H13M10 12.5H18.5M15.5 9L18.2929 11.7929C18.6834 12.1834 18.6834 12.8166 18.2929 13.2071L15.5 16" stroke="black" stroke-opacity="0.2" stroke-width="1.5" stroke-linecap="round"/>
<path d="M13 3.5H9C7.34315 3.5 6 4.84315 6 6.5V18.5C6 20.1569 7.34315 21.5 9 21.5H13M10 12.5H18.5M15.5 9L18.2929 11.7929C18.6834 12.1834 18.6834 12.8166 18.2929 13.2071L15.5 16" stroke="black" stroke-opacity="0.2" stroke-width="1.5" stroke-linecap="round"/>
<path d="M13 3.5H9C7.34315 3.5 6 4.84315 6 6.5V18.5C6 20.1569 7.34315 21.5 9 21.5H13M10 12.5H18.5M15.5 9L18.2929 11.7929C18.6834 12.1834 18.6834 12.8166 18.2929 13.2071L15.5 16" stroke="black" stroke-opacity="0.2" stroke-width="1.5" stroke-linecap="round"/>
<path d="M13 3.5H9C7.34315 3.5 6 4.84315 6 6.5V18.5C6 20.1569 7.34315 21.5 9 21.5H13M10 12.5H18.5M15.5 9L18.2929 11.7929C18.6834 12.1834 18.6834 12.8166 18.2929 13.2071L15.5 16" stroke="black" stroke-opacity="0.2" stroke-width="1.5" stroke-linecap="round"/>
<path d="M13 3.5H9C7.34315 3.5 6 4.84315 6 6.5V18.5C6 20.1569 7.34315 21.5 9 21.5H13M10 12.5H18.5M15.5 9L18.2929 11.7929C18.6834 12.1834 18.6834 12.8166 18.2929 13.2071L15.5 16" stroke="black" stroke-opacity="0.2" stroke-width="1.5" stroke-linecap="round"/>
<path d="M13 3.5H9C7.34315 3.5 6 4.84315 6 6.5V18.5C6 20.1569 7.34315 21.5 9 21.5H13M10 12.5H18.5M15.5 9L18.2929 11.7929C18.6834 12.1834 18.6834 12.8166 18.2929 13.2071L15.5 16" stroke="black" stroke-opacity="0.2" stroke-width="1.5" stroke-linecap="round"/>
</g>
<defs>
<clipPath id="clip0_1071_4896">
<rect width="20" height="20" fill="white" transform="translate(2 2.5)"/>
</clipPath>
</defs>
</svg>
