<svg width="28" height="28" viewBox="0 0 28 28" fill="none" xmlns="http://www.w3.org/2000/svg">
<path d="M20.9974 21.0002L20.0008 20.9172L20.0001 20.9266L19.9995 20.936L20.9974 21.0002ZM6.9974 21.0002L7.99534 20.9361L7.99473 20.9266L7.99394 20.9172L6.9974 21.0002ZM17.4974 7V8H18.4974V7H17.4974ZM10.4974 7H9.4974V8H10.4974V7ZM12.0773 11.5838C12.0314 11.0335 11.5481 10.6245 10.9977 10.6703C10.4473 10.7162 10.0383 11.1995 10.0842 11.7499L11.0807 11.6669L12.0773 11.5838ZM10.6675 18.7499C10.7134 19.3003 11.1967 19.7093 11.7471 19.6634C12.2975 19.6176 12.7065 19.1342 12.6606 18.5838L11.6641 18.6669L10.6675 18.7499ZM17.9106 11.7499C17.9565 11.1995 17.5475 10.7162 16.9971 10.6703C16.4467 10.6245 15.9634 11.0335 15.9175 11.5838L16.9141 11.6669L17.9106 11.7499ZM15.3342 18.5838C15.2883 19.1342 15.6973 19.6176 16.2477 19.6634C16.7981 19.7093 17.2814 19.3003 17.3273 18.7499L16.3307 18.6669L15.3342 18.5838ZM23.3307 8C23.883 8 24.3307 7.55228 24.3307 7C24.3307 6.44772 23.883 6 23.3307 6V7V8ZM4.66406 6C4.11178 6 3.66406 6.44772 3.66406 7C3.66406 7.55228 4.11178 8 4.66406 8V7V6ZM22.1641 7L21.1675 6.91696L20.0008 20.9172L20.9974 21.0002L21.9939 21.0833L23.1606 7.08304L22.1641 7ZM20.9974 21.0002L19.9995 20.936C19.9428 21.8166 19.3179 22.3335 18.67 22.3335V23.3335V24.3335C20.4702 24.3335 21.8774 22.8973 21.9953 21.0644L20.9974 21.0002ZM18.67 23.3335V22.3335H9.33073V23.3335V24.3335H18.67V23.3335ZM9.33073 23.3335V22.3335C8.67956 22.3335 8.05173 21.8132 7.99534 20.9361L6.9974 21.0002L5.99946 21.0644C6.1175 22.9006 7.53358 24.3335 9.33073 24.3335V23.3335ZM6.9974 21.0002L7.99394 20.9172L6.82727 6.91696L5.83073 7L4.83418 7.08304L6.00085 21.0833L6.9974 21.0002ZM5.83073 7V8H22.1641V7V6H5.83073V7ZM17.4974 7H18.4974V4.5H17.4974H16.4974V7H17.4974ZM10.4974 4.5H9.4974V7H10.4974H11.4974V4.5H10.4974ZM11.0807 11.6669L10.0842 11.7499L10.6675 18.7499L11.6641 18.6669L12.6606 18.5838L12.0773 11.5838L11.0807 11.6669ZM16.9141 11.6669L15.9175 11.5838L15.3342 18.5838L16.3307 18.6669L17.3273 18.7499L17.9106 11.7499L16.9141 11.6669ZM16.4974 3.5V2.5H11.4974V3.5V4.5H16.4974V3.5ZM10.4974 7V8H17.4974V7V6H10.4974V7ZM22.1641 7V8H23.3307V7V6H22.1641V7ZM23.3307 7V6H5.83073V7V8H23.3307V7ZM4.66406 7V8H5.83073V7V6H4.66406V7ZM10.4974 4.5H11.4974V3.5V2.5C10.3928 2.5 9.4974 3.39543 9.4974 4.5H10.4974ZM17.4974 4.5H18.4974C18.4974 3.39543 17.602 2.5 16.4974 2.5V3.5V4.5L16.4974 4.5H17.4974Z" fill="#111111"/>
</svg>
