<svg width="52" height="52" viewBox="0 0 52 52" fill="none" xmlns="http://www.w3.org/2000/svg">
<path d="M45.6552 45.4999L35.7494 35.7499M39.7462 23.0454C39.7462 32.1832 32.3385 39.5908 23.2007 39.5908C14.0629 39.5908 6.65524 32.1832 6.65524 23.0454C6.65524 13.9076 14.0629 6.49991 23.2007 6.49991C32.3385 6.49991 39.7462 13.9076 39.7462 23.0454Z" stroke="#111111" stroke-width="3" stroke-linecap="round"/>
<path d="M45.6552 45.4999L35.7494 35.7499M39.7462 23.0454C39.7462 32.1832 32.3385 39.5908 23.2007 39.5908C14.0629 39.5908 6.65524 32.1832 6.65524 23.0454C6.65524 13.9076 14.0629 6.49991 23.2007 6.49991C32.3385 6.49991 39.7462 13.9076 39.7462 23.0454Z" stroke="black" stroke-opacity="0.2" stroke-width="3" stroke-linecap="round"/>
<path d="M45.6552 45.4999L35.7494 35.7499M39.7462 23.0454C39.7462 32.1832 32.3385 39.5908 23.2007 39.5908C14.0629 39.5908 6.65524 32.1832 6.65524 23.0454C6.65524 13.9076 14.0629 6.49991 23.2007 6.49991C32.3385 6.49991 39.7462 13.9076 39.7462 23.0454Z" stroke="black" stroke-opacity="0.2" stroke-width="3" stroke-linecap="round"/>
<path d="M45.6552 45.4999L35.7494 35.7499M39.7462 23.0454C39.7462 32.1832 32.3385 39.5908 23.2007 39.5908C14.0629 39.5908 6.65524 32.1832 6.65524 23.0454C6.65524 13.9076 14.0629 6.49991 23.2007 6.49991C32.3385 6.49991 39.7462 13.9076 39.7462 23.0454Z" stroke="black" stroke-opacity="0.2" stroke-width="3" stroke-linecap="round"/>
<path d="M45.6552 45.4999L35.7494 35.7499M39.7462 23.0454C39.7462 32.1832 32.3385 39.5908 23.2007 39.5908C14.0629 39.5908 6.65524 32.1832 6.65524 23.0454C6.65524 13.9076 14.0629 6.49991 23.2007 6.49991C32.3385 6.49991 39.7462 13.9076 39.7462 23.0454Z" stroke="black" stroke-opacity="0.2" stroke-width="3" stroke-linecap="round"/>
<path d="M45.6552 45.4999L35.7494 35.7499M39.7462 23.0454C39.7462 32.1832 32.3385 39.5908 23.2007 39.5908C14.0629 39.5908 6.65524 32.1832 6.65524 23.0454C6.65524 13.9076 14.0629 6.49991 23.2007 6.49991C32.3385 6.49991 39.7462 13.9076 39.7462 23.0454Z" stroke="black" stroke-opacity="0.2" stroke-width="3" stroke-linecap="round"/>
<path d="M45.6552 45.4999L35.7494 35.7499M39.7462 23.0454C39.7462 32.1832 32.3385 39.5908 23.2007 39.5908C14.0629 39.5908 6.65524 32.1832 6.65524 23.0454C6.65524 13.9076 14.0629 6.49991 23.2007 6.49991C32.3385 6.49991 39.7462 13.9076 39.7462 23.0454Z" stroke="black" stroke-opacity="0.2" stroke-width="3" stroke-linecap="round"/>
<path d="M45.6552 45.4999L35.7494 35.7499M39.7462 23.0454C39.7462 32.1832 32.3385 39.5908 23.2007 39.5908C14.0629 39.5908 6.65524 32.1832 6.65524 23.0454C6.65524 13.9076 14.0629 6.49991 23.2007 6.49991C32.3385 6.49991 39.7462 13.9076 39.7462 23.0454Z" stroke="black" stroke-opacity="0.2" stroke-width="3" stroke-linecap="round"/>
</svg>
