<svg width="48" height="48" viewBox="0 0 48 48" fill="none" xmlns="http://www.w3.org/2000/svg">
<path fill-rule="evenodd" clip-rule="evenodd" d="M34.6384 8.74069C37.5671 7.43934 40.561 10.4331 39.2595 13.3618L27.027 40.8833C25.8457 43.5408 22.125 43.6819 20.7458 41.1216L15.9626 32.2407C15.9163 32.1547 15.8454 32.084 15.7595 32.0376L6.87861 27.2544C4.31766 25.8754 4.45897 22.1544 7.11689 20.9731L34.6384 8.74069ZM35.8571 11.4829L8.33369 23.7153C7.95455 23.8843 7.93504 24.4148 8.30048 24.6118L17.1833 29.395C17.7858 29.7196 18.2806 30.2143 18.6052 30.8169L23.3884 39.6997C23.5856 40.0645 24.1159 40.0452 24.2849 39.6665L36.5173 12.143C36.7031 11.7248 36.2754 11.2973 35.8571 11.4829Z" fill="#00AD38"/>
<path d="M30 18L20 28" stroke="#00AD38" stroke-width="2.5" stroke-linecap="round"/>
</svg>
