<svg width="213" height="100" viewBox="0 0 213 100" fill="none" xmlns="http://www.w3.org/2000/svg">
<g clip-path="url(#clip0_221_978)">
<path d="M11.1469 30.0514C11.1469 30.0514 11.068 30.1205 11.0286 30.16C7.49698 33.9325 7.81265 38.8604 11.3245 41.7342C12.824 42.9588 14.6292 43.5908 16.3062 43.8969C18.6738 44.3315 21.1597 44.1636 23.4286 43.4723C28.9923 41.7737 33.1256 39.4431 36.6375 37.0532C37.693 36.3322 38.8571 35.4928 42.0039 33.3498C42.4873 33.0141 44.3123 31.7895 46.8179 30.3378C49.3532 28.8762 50.2509 28.5503 51.2669 28.3725C52.0068 28.2442 53.7825 27.938 55.5778 28.6096C57.4521 29.3107 58.2315 30.6735 58.8825 31.8092C59.721 33.2708 59.9381 34.683 59.9183 35.8088C59.9183 35.9471 59.9479 36.0755 60.0367 36.194C60.1452 36.3421 60.3425 36.4606 60.53 36.5001C60.9147 36.5791 61.4178 36.352 61.6545 35.9175C63.6374 31.434 61.477 26.7332 57.0082 24.7482C54.9366 23.8298 52.7762 23.6718 50.9513 23.8002C48.998 23.9384 47.4789 24.5112 45.2889 25.3309C43.7993 25.8938 42.7438 26.3974 41.6981 26.911C40.2184 27.6319 38.2356 28.6886 35.9963 30.1304L24.7209 37.6457C24.1783 37.9815 19.5221 40.7664 15.5466 39.3443C15.3493 39.2752 14.6983 39.0283 14.0472 38.5542C10.8214 36.2039 12.163 31.6018 12.4195 30.8217C12.4294 30.7921 12.4392 30.7624 12.4491 30.7328C12.5971 30.3477 12.3406 29.9625 11.946 29.8638C11.6796 29.7946 11.364 29.8638 11.1272 30.0415L11.1469 30.0514Z" fill="#007E1F"/>
<path d="M3.44259 41.744C3.3834 41.6847 3.33408 41.6057 3.29462 41.5366C-1.36155 33.9818 -0.947231 24.1161 3.67934 18.3685C5.6523 15.9095 8.03957 14.6553 10.2394 14.0331C13.3665 13.1641 16.6416 13.49 19.6208 14.8824C26.9503 18.2895 32.3858 22.9508 37.0222 27.7305C38.4132 29.1724 39.9521 30.8611 44.0953 35.1372C44.7365 35.7989 47.1336 38.2678 50.4383 41.1613C53.7825 44.0845 54.9564 44.7363 56.298 45.0918C57.2647 45.3485 59.6126 45.9608 61.9702 44.6178C64.4364 43.2154 65.4624 40.4898 66.3206 38.2184C67.4255 35.2853 67.7115 32.4609 67.6819 30.2192C67.6819 29.9525 67.7214 29.676 67.8398 29.439C67.9779 29.1427 68.2344 28.8959 68.4908 28.8168C68.9939 28.6588 69.6549 29.1131 69.9706 29.9822C72.5847 38.9591 69.7437 48.3705 63.8445 52.3503C61.112 54.1971 58.271 54.5131 55.8639 54.2464C53.2892 53.96 51.2867 52.8244 48.4062 51.185C46.4431 50.0691 45.0522 49.042 43.681 48.015C41.7376 46.5632 39.1234 44.4597 36.1739 41.5761L21.3274 26.5257C20.6073 25.8542 14.4911 20.2745 9.25293 23.1186C8.98659 23.2668 8.13822 23.7408 7.27998 24.6987C3.02827 29.4094 4.80393 38.6233 5.12946 40.1737C5.13933 40.233 5.15906 40.2923 5.17879 40.3614C5.37608 41.1416 5.03082 41.9119 4.51785 42.0995C4.16272 42.2279 3.7484 42.0896 3.44259 41.7341V41.744Z" fill="#00AD38"/>
<path d="M37.2687 13.5493C41.0061 13.5493 44.0359 10.5162 44.0359 6.77464C44.0359 3.03311 41.0061 0 37.2687 0C33.5313 0 30.5015 3.03311 30.5015 6.77464C30.5015 10.5162 33.5313 13.5493 37.2687 13.5493Z" fill="#00AD38"/>
<path d="M30.709 77.0787C29.7521 73.5729 27.276 72.1113 23.774 72.1113C18.1807 72.1113 13.7909 77.5231 13.7909 83.1226C13.7909 87.3888 16.5925 90.0651 20.6568 90.0651C24.4054 90.0651 27.1379 88.3467 29.1799 85.3544H39.9226C36.174 94.0746 27.4634 99.9308 18.743 99.9308C10.0225 99.9308 2.96924 93.7585 2.96924 84.8409C2.96924 72.4273 14.0967 62.2456 25.4116 62.2456C34.3096 62.2456 41.1163 68.0426 41.3728 77.0787H30.6892H30.709Z" fill="#00AD38"/>
<path d="M68.1553 98.7952L68.8557 94.9734H68.7274C66.2514 98.2817 61.9898 100 57.4717 100C48.6921 100 42.8423 94.2031 42.8423 85.2361C42.8423 72.3089 53.4568 62.2556 64.3968 62.2556C68.9149 62.2556 72.6043 63.974 73.867 67.223H73.9952L74.6956 63.4703H85.2509L78.7007 98.8051H68.1454L68.1553 98.7952ZM71.5882 79.3798C71.5882 74.9852 68.6584 72.1213 64.1502 72.1213C58.8133 72.1213 53.6541 77.148 53.6541 82.6882C53.6541 87.0828 56.3866 90.1343 60.9047 90.1343C66.6953 90.1343 71.5882 85.0385 71.5882 79.3798Z" fill="#00AD38"/>
<path d="M83.7715 98.7951L90.3217 63.4603H100.246L99.5452 67.213H99.6735C102.15 63.7072 105.139 62.2456 109.4 62.2456L107.427 72.8717C100.374 73.0001 98.5292 76.1208 97.957 79.3007L94.3366 98.7753H83.7814L83.7715 98.7951Z" fill="#00AD38"/>
<path d="M157.116 84.3374V84.6534C157.116 88.6036 160.046 91.0231 164.169 91.0231C167.158 91.0231 169.19 89.8183 171.163 87.7148H181.975C177.082 95.6054 169.832 99.9408 162.522 99.9408C153.811 99.9408 146.945 93.571 146.945 84.6633C146.945 72.6941 158.201 62.2556 169.269 62.2556C178.493 62.2556 184.717 68.6846 184.717 77.6615C184.717 79.9526 184.333 82.2438 183.573 84.3473H157.116V84.3374ZM174.596 77.2072C174.409 73.3854 171.479 71.1634 167.602 71.1634C163.725 71.1634 160.095 73.5829 158.576 77.2072H174.596Z" fill="#00AD38"/>
<path d="M117.598 84.3374V84.6534C117.598 88.6036 120.528 91.0231 124.651 91.0231C127.64 91.0231 129.672 89.8183 131.645 87.7148H142.457C137.564 95.6054 130.314 99.9408 123.004 99.9408C114.293 99.9408 107.427 93.571 107.427 84.6633C107.427 72.6941 118.683 62.2556 129.751 62.2556C138.975 62.2556 145.199 68.6846 145.199 77.6615C145.199 79.9526 144.815 82.2438 144.055 84.3473H117.598V84.3374ZM135.088 77.2072C134.901 73.3854 131.971 71.1634 128.094 71.1634C124.217 71.1634 120.587 73.5829 119.068 77.2072H135.088Z" fill="#00AD38"/>
<path d="M183.356 98.7951L189.906 63.4603H199.83L199.13 67.213H199.258C201.734 63.7072 204.723 62.2456 208.985 62.2456L207.012 72.8717C199.958 73.0001 198.114 76.1208 197.541 79.3007L193.921 98.7753H183.366L183.356 98.7951Z" fill="#00AD38"/>
<path d="M95.8655 54.3354L99.6142 34.0312C99.7424 33.33 99.8016 32.698 99.8016 32.0561C99.8016 29.0638 98.2134 27.7306 95.2243 27.7306C91.3475 27.7306 88.8616 29.5773 87.8455 35.1768L84.2843 54.3354H73.729L80.2792 19.0006H90.1341L89.4337 22.7533H89.562C92.3635 19.2475 95.6682 17.7859 99.8016 17.7859C105.336 17.7859 110.988 20.2647 110.988 27.5923C110.988 28.7971 110.673 31.0982 110.604 31.6018L106.411 54.3255H95.8557L95.8655 54.3354Z" fill="#00AD38"/>
<path d="M123.527 39.8874V40.2034C123.527 44.1537 126.456 46.5732 130.58 46.5732C133.569 46.5732 135.601 45.3684 137.574 43.2649H148.386C143.493 51.1555 136.242 55.4908 128.932 55.4908C120.222 55.4908 113.356 49.1211 113.356 40.2133C113.356 28.2441 124.612 17.8057 135.68 17.8057C144.903 17.8057 151.128 24.2347 151.128 33.2115C151.128 35.5027 150.743 37.7938 149.984 39.8973H123.527V39.8874ZM141.007 32.7573C140.819 28.9354 137.89 26.7134 134.013 26.7134C130.136 26.7134 126.506 29.1329 124.987 32.7573H141.007Z" fill="#00AD38"/>
<path d="M173.442 54.3354L168.421 43.3834L159.197 54.3354H146.481L163.4 35.4336L154.561 19.0105H167.217L171.222 28.3034L178.601 19.0105H191.129L176.184 35.4336L186.355 54.3354H173.442Z" fill="#00AD38"/>
<path d="M190.804 54.3354L195.894 27.0294H190.676L192.136 19.0104H197.354L199.515 7.23877H210.07L207.91 19.0104H213L211.54 27.0294H206.45L201.359 54.3354H190.804Z" fill="#00AD38"/>
<path d="M187.667 6.2019H183.267L186.917 9.85586H80.9795V12.9074H186.917L183.267 16.5614H187.667L192.836 11.3767L187.667 6.2019Z" fill="#00AD38"/>
</g>
<defs>
<clipPath id="clip0_221_978">
<rect width="213" height="100" fill="white"/>
</clipPath>
</defs>
</svg>
