<svg width="186" height="88" viewBox="0 0 186 88" fill="none" xmlns="http://www.w3.org/2000/svg">
<path d="M9.73614 26.445C9.73614 26.445 9.66722 26.5059 9.63277 26.5406C6.54886 29.8604 6.82452 34.1969 9.89119 36.7259C11.2006 37.8035 12.777 38.3597 14.2414 38.6291C16.3088 39.0115 18.4796 38.8638 20.4609 38.2554C25.3193 36.7607 28.9287 34.7097 31.9954 32.6066C32.9171 31.9722 33.9336 31.2335 36.6815 29.3477C37.1036 29.0522 38.6973 27.9746 40.8853 26.697C43.0992 25.4109 43.8831 25.1241 44.7703 24.9676C45.4164 24.8547 46.967 24.5853 48.5348 25.1762C50.1715 25.7932 50.852 26.9925 51.4205 27.9919C52.1527 29.2781 52.3423 30.5209 52.325 31.5116C52.325 31.6333 52.3509 31.7462 52.4284 31.8505C52.5232 31.9809 52.6954 32.0852 52.8591 32.1199C53.1951 32.1894 53.6344 31.9896 53.8411 31.6072C55.5726 27.6617 53.6861 23.525 49.7838 21.7782C47.9748 20.97 46.0883 20.831 44.4947 20.9439C42.789 21.0656 41.4624 21.5697 39.5501 22.291C38.2493 22.7863 37.3276 23.2295 36.4145 23.6814C35.1224 24.3158 33.3909 25.2457 31.4355 26.5145L21.5894 33.128C21.1156 33.4235 17.0496 35.8742 13.5781 34.6228C13.4058 34.562 12.8373 34.3447 12.2687 33.9275C9.45187 31.8592 10.6234 27.8094 10.8474 27.1229C10.856 27.0968 10.8646 27.0707 10.8732 27.0447C11.0024 26.7057 10.7785 26.3668 10.4339 26.2799C10.2013 26.2191 9.92565 26.2799 9.71891 26.4363L9.73614 26.445Z" fill="#007E1F"/>
<path d="M3.00662 36.7348C2.95493 36.6826 2.91186 36.6131 2.8774 36.5523C-1.18853 29.904 -0.826729 21.2222 3.21336 16.1643C4.93621 14.0004 7.02086 12.8967 8.94184 12.3492C11.6726 11.5844 14.5325 11.8712 17.134 13.0966C23.5344 16.0948 28.2808 20.1967 32.3295 24.4029C33.5442 25.6718 34.888 27.1578 38.506 30.9208C39.0659 31.5031 41.1592 33.6757 44.0449 36.222C46.9652 38.7944 47.9903 39.368 49.1618 39.6808C50.006 39.9068 52.0562 40.4456 54.115 39.2637C56.2686 38.0296 57.1645 35.6311 57.9139 33.6322C58.8787 31.0512 59.1285 28.5657 59.1027 26.5929C59.1027 26.3583 59.1371 26.115 59.2405 25.9064C59.3611 25.6457 59.5851 25.4284 59.809 25.3589C60.2484 25.2198 60.8255 25.6196 61.1012 26.3844C63.3839 34.284 60.903 42.5661 55.7517 46.0684C53.3656 47.6935 50.8847 47.9716 48.7828 47.7369C46.5345 47.4849 44.7858 46.4855 42.2704 45.0429C40.5562 44.0609 39.3416 43.157 38.1442 42.2532C36.4472 40.9757 34.1644 39.1246 31.5887 36.587L18.6243 23.3427C17.9954 22.7517 12.6546 17.8416 8.08041 20.3445C7.84783 20.4748 7.107 20.892 6.35756 21.735C2.64482 25.8803 4.19538 33.9886 4.47965 35.353C4.48827 35.4051 4.5055 35.4573 4.52272 35.5181C4.69501 36.2046 4.39351 36.8825 3.94557 37.0476C3.63546 37.1606 3.27366 37.0389 3.00662 36.7261V36.7348Z" fill="#00AD38"/>
<path d="M32.5441 11.9233C35.8078 11.9233 38.4535 9.25417 38.4535 5.96162C38.4535 2.66908 35.8078 -6.10352e-05 32.5441 -6.10352e-05C29.2805 -6.10352e-05 26.6348 2.66908 26.6348 5.96162C26.6348 9.25417 29.2805 11.9233 32.5441 11.9233Z" fill="#00AD38"/>
<path d="M26.817 67.8292C25.9815 64.744 23.8193 63.4578 20.7612 63.4578C15.8769 63.4578 12.0436 68.2202 12.0436 73.1477C12.0436 76.902 14.49 79.2572 18.0391 79.2572C21.3125 79.2572 23.6987 77.745 25.4818 75.1118H34.8628C31.5893 82.7855 23.983 87.939 16.3679 87.939C8.75294 87.939 2.59375 82.5074 2.59375 74.6599C2.59375 63.7359 12.3106 54.776 22.1912 54.776C29.9613 54.776 35.9051 59.8773 36.1291 67.8292H26.7998H26.817Z" fill="#00AD38"/>
<path d="M59.5163 86.9398L60.1279 83.5765H60.0159C57.8537 86.4878 54.1324 88 50.1871 88C42.5204 88 37.4121 82.8987 37.4121 75.0077C37.4121 63.6318 46.6811 54.7849 56.2343 54.7849C60.1796 54.7849 63.4013 56.297 64.504 59.1562H64.6159L65.2276 55.8538H74.4448L68.7249 86.9484H59.5077L59.5163 86.9398ZM62.5141 69.8542C62.5141 65.987 59.9556 63.4667 56.0189 63.4667C51.3586 63.4667 46.8533 67.8902 46.8533 72.7655C46.8533 76.6328 49.2395 79.3182 53.1848 79.3182C58.2414 79.3182 62.5141 74.8339 62.5141 69.8542Z" fill="#00AD38"/>
<path d="M73.1523 86.9396L78.8722 55.845H87.5382L86.9265 59.1473H87.0385C89.2007 56.0622 91.8108 54.776 95.5322 54.776L93.8093 64.127C87.6501 64.24 86.0393 66.9862 85.5397 69.7845L82.3782 86.9222H73.161L73.1523 86.9396Z" fill="#00AD38"/>
<path d="M137.2 74.2169V74.495C137.2 77.9712 139.758 80.1003 143.359 80.1003C145.969 80.1003 147.744 79.0401 149.466 77.189H158.908C154.635 84.1327 148.303 87.9478 141.92 87.9478C134.314 87.9478 128.318 82.3425 128.318 74.5036C128.318 63.9708 138.147 54.7849 147.812 54.7849C155.867 54.7849 161.302 60.4424 161.302 68.3421C161.302 70.3583 160.966 72.3745 160.303 74.2255H137.2V74.2169ZM152.464 67.9423C152.3 64.5791 149.742 62.6237 146.357 62.6237C142.971 62.6237 139.801 64.7529 138.475 67.9423H152.464Z" fill="#00AD38"/>
<path d="M102.691 74.2169V74.495C102.691 77.9712 105.249 80.1003 108.85 80.1003C111.46 80.1003 113.235 79.0401 114.958 77.189H124.399C120.126 84.1327 113.795 87.9478 107.411 87.9478C99.8051 87.9478 93.8096 82.3425 93.8096 74.5036C93.8096 63.9708 103.638 54.7849 113.304 54.7849C121.358 54.7849 126.794 60.4424 126.794 68.3421C126.794 70.3583 126.458 72.3745 125.794 74.2255H102.691V74.2169ZM117.964 67.9423C117.8 64.5791 115.242 62.6237 111.856 62.6237C108.471 62.6237 105.301 64.7529 103.974 67.9423H117.964Z" fill="#00AD38"/>
<path d="M160.113 86.9396L165.833 55.845H174.499L173.887 59.1473H173.999C176.162 56.0622 178.772 54.776 182.493 54.776L180.77 64.127C174.611 64.24 173 66.9862 172.501 69.7845L169.339 86.9222H160.122L160.113 86.9396Z" fill="#00AD38"/>
<path d="M83.7132 47.8152L86.9866 29.9475C87.0986 29.3305 87.1503 28.7743 87.1503 28.2094C87.1503 25.5762 85.7634 24.403 83.1533 24.403C79.7679 24.403 77.5971 26.0281 76.7098 30.9556L73.6001 47.8152H64.3828L70.1027 16.7206H78.7083L78.0967 20.023H78.2087C80.6551 16.9379 83.5409 15.6517 87.1503 15.6517C91.9829 15.6517 96.9189 17.833 96.9189 24.2813C96.9189 25.3416 96.6432 27.3665 96.5829 27.8097L92.9219 47.8065H83.7046L83.7132 47.8152Z" fill="#00AD38"/>
<path d="M107.868 35.1008V35.3789C107.868 38.8551 110.426 40.9843 114.027 40.9843C116.637 40.9843 118.411 39.9241 120.134 38.073H129.576C125.303 45.0167 118.971 48.8318 112.588 48.8318C104.982 48.8318 98.9863 43.2265 98.9863 35.3876C98.9863 24.8547 108.815 15.6689 118.48 15.6689C126.535 15.6689 131.97 21.3264 131.97 29.2261C131.97 31.2423 131.634 33.2585 130.971 35.1095H107.868V35.1008ZM123.132 28.8263C122.968 25.4631 120.41 23.5077 117.025 23.5077C113.639 23.5077 110.469 25.6369 109.143 28.8263H123.132Z" fill="#00AD38"/>
<path d="M151.457 47.8151L147.072 38.1773L139.018 47.8151H127.914L142.688 31.1815L134.969 16.7292H146.021L149.519 24.9069L155.962 16.7292H166.902L153.852 31.1815L162.733 47.8151H151.457Z" fill="#00AD38"/>
<path d="M166.618 47.8149L171.063 23.7856H166.506L167.781 16.7289H172.338L174.224 6.36984H183.441L181.555 16.7289H186L184.725 23.7856H180.28L175.835 47.8149H166.618Z" fill="#00AD38"/>
<path d="M163.878 5.45738H160.036L163.223 8.67287H70.7148V11.3582H163.223L160.036 14.5737H163.878L168.392 10.0112L163.878 5.45738Z" fill="#00AD38"/>
</svg>
